<?xml version="1.0" standalone="no"?>
<!DOCTYPE svg PUBLIC "-//W3C//DTD SVG 20010904//EN"
 "http://www.w3.org/TR/2001/REC-SVG-20010904/DTD/svg10.dtd">
<svg version="1.0" xmlns="http://www.w3.org/2000/svg"
 width="1200.000000pt" height="1885.000000pt" viewBox="0 0 1200.000000 1885.000000"
 preserveAspectRatio="xMidYMid meet">

<g transform="translate(0.000000,1885.000000) scale(0.100000,-0.100000)"
fill="#000000" stroke="none">
<path d="M20 14745 l0 -4105 5965 0 5965 0 0 4105 0 4105 -5965 0 -5965 0 0
-4105z m1825 830 c39 -19 55 -51 55 -111 0 -107 -19 -114 -324 -114 l-246 0
-2 -690 -3 -690 -32 -32 c-29 -29 -39 -32 -91 -33 -33 0 -71 6 -85 14 -58 31
-57 17 -57 755 l0 676 -245 0 c-309 0 -325 6 -325 118 0 53 25 96 64 112 11 5
299 9 639 9 539 1 623 -1 652 -14z m1491 -16 c32 -32 43 -103 24 -149 -25 -60
-24 -60 -525 -60 l-455 0 0 -245 0 -245 425 0 425 0 32 -29 c30 -27 33 -34 33
-90 0 -53 -4 -64 -28 -88 l-27 -28 -430 -3 -430 -3 0 -239 0 -240 480 0 c350
0 486 -3 505 -12 34 -15 55 -56 55 -105 0 -52 -19 -85 -60 -105 -32 -17 -82
-18 -593 -18 -608 0 -610 0 -636 56 -15 34 -16 1556 0 1585 25 48 38 49 626
46 l553 -2 26 -26z m562 11 c18 -11 37 -32 42 -46 6 -15 10 -288 10 -705 l0
-679 441 0 c283 0 447 -4 460 -10 43 -24 63 -116 36 -170 -7 -14 -28 -33 -47
-42 -32 -17 -82 -18 -592 -18 l-558 0 0 809 0 808 21 27 c12 15 31 32 43 36
39 16 109 11 144 -10z m2367 6 c43 -18 55 -42 55 -110 0 -44 -5 -61 -24 -83
l-24 -28 -466 -3 -466 -3 0 -244 0 -245 415 0 c443 0 459 -2 485 -49 17 -32
12 -123 -8 -147 -34 -43 -44 -44 -476 -44 l-416 0 0 -240 0 -240 486 0 486 0
29 -29 c24 -25 29 -38 29 -80 0 -27 -5 -61 -11 -74 -24 -52 -18 -52 -645 -52
l-584 0 -27 28 -28 27 0 784 c0 770 0 784 20 806 11 12 29 26 40 31 11 4 262
8 558 8 442 1 544 -2 572 -13z m1470 0 c43 -18 55 -42 55 -110 0 -44 -5 -61
-24 -83 l-24 -28 -344 -5 c-330 -5 -345 -6 -385 -27 -49 -27 -79 -62 -94 -112
-6 -24 -9 -193 -7 -492 l3 -456 29 -37 c16 -21 50 -48 75 -60 43 -20 66 -21
403 -26 l356 -5 26 -24 c53 -50 40 -162 -24 -193 -31 -16 -72 -18 -390 -18
-195 0 -382 4 -414 10 -158 26 -288 151 -325 311 -6 26 -11 239 -11 530 0 460
1 490 20 552 42 135 153 239 294 273 78 19 735 19 781 0z m1385 4 c129 -24
237 -105 293 -219 l32 -66 0 -550 0 -550 -26 -55 c-56 -118 -170 -206 -298
-230 -73 -14 -632 -13 -707 1 -123 23 -238 112 -292 227 l-27 57 0 550 0 550
33 67 c53 108 165 194 284 217 62 12 645 13 708 1z m937 -7 c41 -23 41 -24
307 -400 126 -178 232 -323 236 -323 4 0 118 154 253 343 134 188 256 353 271
366 31 30 119 40 166 21 62 -26 60 5 60 -830 0 -844 3 -807 -65 -836 -43 -18
-86 -18 -129 0 -69 29 -66 -2 -66 633 0 315 -3 573 -7 573 -5 -1 -91 -118
-193 -262 -102 -143 -196 -269 -209 -279 -17 -14 -40 -19 -81 -19 -41 0 -64 5
-81 19 -13 10 -107 136 -209 279 -102 144 -188 261 -192 262 -5 0 -8 -258 -8
-573 0 -635 3 -604 -66 -633 -43 -18 -86 -18 -129 0 -68 29 -65 -8 -65 835 0
579 3 766 12 787 24 51 132 72 195 37z m-2586 -2028 c244 -36 337 -119 347
-306 12 -243 -127 -375 -468 -445 -92 -19 -146 -24 -272 -24 l-158 0 0 -333 0
-333 -110 0 -110 0 0 728 0 728 338 0 c243 0 364 -4 433 -15z m2725 -111 c64
-31 82 -101 38 -153 -32 -39 -90 -56 -141 -42 -104 29 -127 138 -40 191 39 24
97 26 143 4z m844 -304 c88 -11 216 -44 238 -62 8 -8 12 -51 12 -154 l0 -144
-27 0 c-26 0 -30 6 -61 95 -44 123 -81 178 -138 206 -41 19 -57 21 -147 16
-64 -3 -117 -11 -142 -22 -86 -37 -138 -119 -114 -182 26 -70 85 -104 287
-163 224 -66 303 -102 369 -171 41 -44 53 -77 53 -147 0 -144 -121 -268 -299
-308 -133 -30 -356 -7 -494 51 l-37 15 0 166 0 165 26 -3 c24 -3 30 -14 65
-112 44 -127 82 -193 125 -218 39 -23 165 -41 229 -33 118 15 219 67 249 129
32 67 15 133 -47 180 -45 34 -75 46 -272 106 -94 28 -198 65 -232 82 -236 116
-211 371 46 469 49 19 167 45 211 48 9 1 54 -4 100 -9z m-2505 -23 c82 -26
137 -67 170 -128 l30 -54 5 -390 5 -390 58 -3 c42 -2 57 -7 57 -17 0 -13 -28
-15 -170 -15 l-170 0 0 82 0 81 -29 -39 c-40 -54 -68 -79 -127 -108 -162 -81
-379 -53 -487 63 -54 58 -71 106 -64 179 10 98 74 172 185 215 23 10 131 37
240 61 108 24 220 53 247 64 l50 20 -1 115 c-1 106 -4 120 -28 161 -32 55 -92
86 -179 93 -139 11 -196 -33 -285 -217 -52 -111 -59 -120 -85 -120 l-28 0 3
152 3 151 55 19 c105 36 198 48 350 44 95 -2 162 -9 195 -19z m1195 -11 l35
-11 3 -183 2 -182 -24 0 c-21 0 -29 13 -71 118 -78 195 -102 225 -172 207 -44
-10 -125 -102 -148 -165 -17 -50 -20 -89 -23 -397 l-3 -343 80 0 c65 0 81 -3
81 -15 0 -13 -34 -15 -250 -15 -212 0 -250 2 -250 15 0 10 16 15 63 17 l62 3
3 463 2 462 -65 0 c-58 0 -65 2 -65 20 0 19 7 20 160 20 l160 0 0 -97 0 -97
28 45 c81 128 242 183 392 135z m530 -471 l0 -485 55 0 c42 0 55 -3 55 -15 0
-13 -32 -15 -225 -15 -193 0 -225 2 -225 15 0 12 13 15 60 15 l60 0 0 465 0
465 -60 0 c-53 0 -60 2 -60 20 0 19 7 20 170 20 l170 0 0 -485z"/>
<path d="M8477 15336 c-50 -18 -85 -51 -108 -101 -17 -37 -19 -74 -19 -490 0
-501 0 -500 69 -558 52 -44 91 -48 369 -45 293 3 311 8 367 87 l30 43 3 462 3
462 -24 44 c-13 25 -43 59 -66 75 l-43 30 -271 2 c-213 2 -280 0 -310 -11z"/>
<path d="M6947 13483 l-27 -4 2 -312 3 -312 150 1 c266 2 410 65 482 212 37
75 39 194 6 257 -51 96 -131 141 -280 155 -97 9 -282 11 -336 3z"/>
<path d="M8487 12664 c-20 -7 -105 -32 -187 -55 -210 -58 -248 -90 -271 -227
-27 -162 80 -272 237 -243 137 26 238 138 264 292 12 74 13 236 3 242 -5 3
-25 -1 -46 -9z"/>
<path d="M27 10083 c-4 -3 -7 -51 -7 -105 0 -90 2 -99 18 -94 9 3 85 10 167
17 115 8 221 8 455 -1 219 -9 418 -10 705 -4 220 5 590 9 823 8 l423 -1 -3 91
-3 91 -1286 3 c-707 1 -1289 -1 -1292 -5z"/>
<path d="M9905 10080 c-16 -6 -41 -19 -55 -29 l-25 -20 42 -35 c74 -64 152
-210 138 -263 -9 -39 -64 -92 -107 -104 -49 -13 -100 -2 -226 48 -90 36 -171
50 -216 39 l-26 -6 0 -116 0 -116 -51 -46 c-106 -96 -155 -105 -225 -40 -101
93 -119 176 -53 244 36 37 58 46 167 69 40 8 82 20 93 26 18 9 16 12 -23 33
-30 15 -63 49 -110 111 -37 50 -88 109 -113 132 -76 70 -99 73 -485 73 l-336
0 -90 -31 c-139 -47 -301 -87 -389 -94 -136 -12 -281 20 -386 85 -28 17 -53
30 -55 28 -7 -7 57 -385 76 -449 11 -36 20 -93 20 -126 l0 -60 70 -59 70 -59
-48 -41 c-26 -23 -59 -52 -74 -65 l-27 -24 24 -139 c14 -77 26 -145 29 -152 2
-6 36 -19 75 -29 81 -20 130 -49 149 -87 16 -35 6 -80 -62 -267 -29 -80 -59
-170 -66 -200 -19 -78 -9 -262 40 -736 22 -220 44 -455 47 -522 l6 -123 31 0
c51 0 425 29 516 41 47 5 118 17 159 25 l73 15 72 -41 c62 -36 83 -43 161 -51
103 -11 163 -5 220 22 50 23 75 64 82 132 6 63 -136 973 -169 1082 -14 49 -21
100 -22 170 -1 89 2 106 25 155 33 69 89 126 154 155 90 41 105 41 148 -3 l38
-39 -20 -99 c-25 -123 -28 -163 -13 -191 17 -31 15 -164 -2 -189 -27 -38 8
-230 104 -574 78 -281 94 -355 115 -562 l6 -58 262 7 262 6 93 71 c80 62 92
74 88 96 -3 14 -13 96 -22 183 -14 136 -15 182 -5 338 8 119 9 289 5 499 l-7
319 72 -20 c40 -11 96 -29 126 -39 52 -18 54 -18 70 0 16 17 16 23 -1 92 -17
67 -18 115 -16 558 2 311 -1 517 -8 575 -21 178 -75 320 -148 393 -68 68 -178
104 -247 82z m-1977 -260 c45 -19 62 -35 103 -93 27 -38 51 -85 55 -103 8 -43
-15 -80 -62 -100 -30 -13 -34 -18 -34 -53 0 -78 -42 -141 -93 -141 -48 0 -93
28 -168 107 -90 95 -124 163 -124 253 0 76 18 108 80 140 54 28 166 24 243
-10z m690 -148 c45 -43 83 -87 83 -97 3 -52 -4 -130 -14 -146 -17 -27 -76 -56
-139 -69 -67 -13 -89 -3 -132 58 -39 58 -56 107 -56 167 0 49 4 59 35 94 38
41 87 70 121 71 12 0 53 -31 102 -78z m326 -501 c71 -57 81 -76 68 -120 -36
-118 -224 -208 -290 -138 -26 28 -44 107 -40 178 3 48 6 55 37 73 34 20 117
44 157 45 12 1 43 -16 68 -38z m-658 -133 c28 -13 29 -16 26 -78 -1 -44 -10
-81 -26 -112 l-23 -48 36 0 c20 0 57 -10 81 -22 l45 -23 6 -295 c8 -358 23
-567 83 -1175 7 -71 12 -131 10 -133 -1 -2 -43 47 -93 110 l-91 113 0 101 0
102 -75 66 c-74 67 -75 68 -106 168 -53 174 -62 242 -56 443 5 185 25 314 67
432 11 32 15 55 9 59 -6 3 -32 3 -60 -1 -37 -5 -56 -3 -73 9 -23 14 -24 19
-19 103 6 128 11 152 40 180 23 24 29 25 108 21 45 -3 95 -12 111 -20z m1183
-67 c40 -40 55 -83 56 -159 0 -66 -3 -76 -24 -93 -36 -30 -105 -25 -168 11
-61 35 -93 77 -100 129 -5 34 -2 41 29 64 82 63 172 83 207 48z m504 -52 c71
-19 137 -98 137 -163 0 -99 -109 -145 -241 -101 -70 24 -89 52 -89 136 0 58 4
72 25 98 34 40 94 51 168 30z m-209 -419 c19 -7 39 -36 76 -109 58 -117 62
-155 29 -291 -45 -188 -44 -281 6 -438 14 -42 25 -83 25 -89 0 -21 -52 -41
-135 -52 -150 -21 -152 -23 -196 -191 -24 -92 -53 -132 -87 -123 -80 20 -129
190 -119 416 4 115 11 155 52 312 56 212 94 380 95 416 0 41 95 120 173 145
53 16 51 16 81 4z"/>
<path d="M4247 9988 c6 -157 -28 -183 -122 -98 -60 54 -64 55 -130 31 -16 -6
-42 -13 -57 -16 -15 -3 -54 -30 -86 -60 -96 -88 -132 -92 -172 -19 -29 57 -92
111 -142 125 -39 10 -118 -3 -118 -20 0 -27 87 -112 207 -204 284 -215 323
-302 226 -499 -29 -58 -46 -110 -57 -172 -19 -110 -47 -169 -92 -197 l-35 -21
-242 78 c-133 42 -298 94 -367 114 l-125 38 -2 -37 c-2 -20 -10 -84 -19 -142
-18 -118 -12 -149 30 -149 57 0 149 -63 291 -199 92 -89 162 -147 201 -168 67
-36 98 -65 114 -107 24 -63 -7 -82 -120 -74 -60 5 -88 15 -216 77 -80 39 -150
71 -155 71 -14 0 -21 -44 -10 -71 12 -32 112 -85 231 -124 236 -77 278 -142
210 -327 -17 -46 -51 -157 -76 -247 -70 -256 -116 -356 -202 -433 -53 -48 -88
-65 -175 -87 -103 -26 -103 -57 -3 -108 82 -42 178 -29 531 73 116 33 143 37
250 38 111 1 125 -1 177 -26 32 -15 74 -39 93 -54 38 -29 33 -29 207 -8 46 5
64 3 100 -15 43 -20 55 -21 505 -21 l461 0 21 51 c62 143 74 289 46 529 -8 69
-15 164 -15 213 0 75 -3 90 -21 108 -50 50 -181 83 -308 77 l-76 -3 -3 44 c-6
80 34 97 258 110 233 13 259 36 229 208 -20 116 -69 119 -233 16 -114 -72
-157 -87 -202 -73 -19 7 -34 17 -34 23 0 23 58 134 144 276 106 175 129 221
194 381 93 233 166 485 208 715 19 105 26 394 11 448 l-7 27 -298 0 c-286 0
-299 -1 -320 -20 -46 -44 -56 -76 -82 -282 -21 -165 -45 -232 -92 -258 -15 -8
-30 -12 -33 -9 -3 4 -17 53 -30 110 -41 174 -73 274 -117 369 l-41 90 -156 0
-157 0 3 -92z m-207 -169 c0 -10 -7 -37 -16 -59 -20 -50 -61 -75 -98 -60 -33
12 -33 30 1 82 41 61 113 85 113 37z m305 -86 c5 -23 -2 -35 -56 -89 -69 -70
-100 -87 -150 -82 -34 3 -34 3 -37 60 -3 50 0 61 21 82 14 14 40 27 58 30 33
5 137 22 150 25 4 0 10 -11 14 -26z m180 -100 c-3 -32 -10 -111 -15 -176 -16
-185 -50 -233 -154 -221 -49 6 -59 11 -67 31 -15 39 1 134 27 166 13 15 48 70
79 123 50 85 97 134 128 134 4 0 5 -26 2 -57z m767 -40 c115 -65 119 -69 114
-96 -14 -69 -63 -117 -268 -260 -104 -74 -158 -149 -158 -224 0 -23 95 -117
129 -128 36 -11 22 -68 -29 -120 -39 -39 -42 -40 -109 -40 -63 0 -73 3 -122
37 -58 40 -186 181 -206 226 -7 15 -12 56 -12 92 -1 132 74 227 324 407 77 55
156 117 174 137 19 20 37 36 39 36 2 0 58 -30 124 -67z m-793 -666 c18 -35 26
-70 29 -128 l5 -79 -37 -15 c-53 -23 -141 -29 -230 -16 -44 6 -81 13 -83 15
-2 1 4 19 12 39 8 20 15 49 15 65 0 20 14 41 53 79 75 73 113 94 166 91 43 -3
46 -6 70 -51z m-1329 -40 c36 -14 119 -48 185 -76 113 -47 120 -51 120 -78 0
-25 -4 -28 -36 -31 -56 -5 -281 79 -352 132 -29 21 -67 75 -67 94 0 13 46 0
150 -41z m395 -337 c7 -21 26 -28 90 -32 31 -2 41 -7 43 -23 5 -36 -20 -56
-80 -62 -71 -7 -137 21 -169 73 -29 47 -14 64 57 64 44 0 54 -3 59 -20z m393
-75 c25 -23 45 -89 36 -117 -4 -15 -18 -18 -78 -18 -62 0 -75 3 -93 23 -51 56
-54 107 -6 125 65 25 105 22 141 -13z m475 -148 c57 -24 60 -35 31 -120 -27
-82 -66 -127 -108 -127 -13 0 -43 11 -67 23 -24 13 -75 34 -114 47 -93 31
-113 45 -127 91 -10 34 -9 42 7 59 14 16 31 20 84 21 36 0 86 4 111 8 72 13
148 12 183 -2z m-619 -193 c26 -10 19 -72 -14 -139 -34 -68 -39 -124 -12 -147
11 -10 48 -18 107 -22 50 -3 118 -9 152 -12 70 -7 121 0 148 20 17 12 17 16 5
31 -24 29 -67 45 -142 51 -112 9 -138 20 -138 55 0 26 3 29 33 30 17 1 79 4
137 8 l105 6 84 -58 c101 -70 120 -92 121 -134 0 -61 -154 -220 -332 -341
-166 -112 -411 -252 -424 -241 -26 21 -47 133 -47 239 1 111 18 206 78 452 37
148 42 160 90 190 35 21 29 20 49 12z m1085 -348 c45 -72 81 -138 81 -149 0
-27 -18 -59 -51 -87 l-29 -25 16 -55 c21 -76 21 -204 0 -267 -16 -49 -19 -51
-59 -57 -23 -3 -161 -9 -307 -13 -146 -4 -269 -8 -275 -8 -5 0 -11 18 -13 40
-3 37 2 46 63 114 82 90 171 169 248 219 l57 37 -67 20 c-120 37 -132 92 -39
180 42 40 284 191 292 182 1 -1 38 -60 83 -131z"/>
<path d="M4733 7594 c-46 -25 -83 -49 -83 -54 0 -20 142 -36 198 -21 23 7 42
14 42 17 0 17 -53 104 -63 104 -6 0 -49 -21 -94 -46z"/>
<path d="M6036 10053 c-3 -16 -8 -48 -12 -73 -10 -70 -62 -226 -109 -326 l-42
-91 75 -7 c41 -3 99 -14 129 -23 48 -15 53 -20 53 -45 0 -33 3 -32 -115 -13
-49 8 -102 15 -117 15 l-28 0 0 -445 0 -445 55 0 c47 0 57 -3 70 -24 15 -22
15 -27 0 -55 -14 -29 -19 -31 -70 -31 l-55 0 0 -49 c0 -54 9 -60 80 -61 20 0
56 -13 85 -30 28 -16 65 -30 83 -30 27 0 32 -3 32 -25 0 -24 -2 -25 -76 -25
-41 0 -84 5 -95 11 -11 6 -39 7 -64 3 -43 -6 -45 -7 -45 -41 l0 -36 43 7 c23
4 89 1 146 -5 89 -11 105 -16 118 -36 13 -19 13 -28 3 -54 -9 -22 -17 -28 -29
-23 -16 6 -58 9 -209 17 l-72 4 2 -346 3 -346 41 -9 c34 -7 46 -16 63 -47 l22
-39 -26 -10 c-14 -6 -44 -10 -66 -10 l-39 0 0 -190 0 -190 600 0 600 0 0 191
0 192 -57 -6 c-32 -3 -76 -3 -98 1 -32 6 -39 12 -37 27 6 33 84 186 117 230
31 41 32 41 49 255 9 118 19 233 22 255 l6 40 -114 -3 c-62 -2 -129 -7 -149
-11 -29 -7 -38 -5 -47 10 -17 27 -15 54 6 71 21 19 203 41 260 32 l42 -7 0 35
c0 34 -2 36 -41 42 -48 8 -99 32 -99 47 0 30 22 49 58 49 73 0 82 7 82 61 l0
49 -55 0 c-47 0 -57 3 -71 25 -14 21 -14 30 -4 55 12 29 15 30 71 30 l59 0 0
445 0 445 -27 0 c-26 0 -95 -9 -190 -25 -43 -8 -43 -7 -43 23 0 29 4 32 51 46
29 9 87 19 130 22 l79 7 0 83 0 83 -42 5 c-24 2 -162 14 -308 26 -322 26 -438
55 -428 106 7 37 31 39 175 11 163 -33 324 -53 486 -63 l117 -7 0 137 0 136
-514 0 -514 0 -6 -27z m402 -453 c23 -11 42 -24 42 -30 0 -13 -79 -100 -92
-100 -15 0 -53 46 -79 95 -21 40 -22 47 -9 55 19 13 83 3 138 -20z m-260 -267
c-3 -28 -4 -28 -80 -31 l-78 -3 0 31 0 30 81 0 80 0 -3 -27z m393 -44 c23 -23
25 -81 3 -103 -25 -26 -35 -20 -99 52 l-38 43 28 29 c27 28 29 28 57 14 16 -8
38 -24 49 -35z m419 -139 l0 -90 -100 0 c-105 0 -150 12 -150 40 0 25 36 68
73 87 26 13 140 49 170 52 4 1 7 -39 7 -89z m-775 46 c19 -8 40 -27 47 -41 10
-22 9 -27 -8 -40 -28 -21 -120 -55 -170 -62 l-42 -6 -21 70 c-12 39 -21 73
-21 76 0 18 173 20 215 3z m28 -349 c39 -11 66 -42 50 -58 -15 -15 -156 -31
-211 -25 -54 6 -112 29 -112 45 0 10 40 47 60 54 21 9 167 -2 213 -16z m407
-322 l0 -55 -150 0 -150 0 0 55 0 55 150 0 150 0 0 -55z m-64 -633 c-3 -2 -32
-5 -65 -6 -77 -1 -95 14 -81 65 13 47 39 69 97 84 l48 12 3 -75 c2 -41 1 -77
-2 -80z m-456 -92 l0 -30 -105 0 -105 0 0 30 0 30 105 0 105 0 0 -30z m484
-130 c25 -9 26 -14 26 -80 0 -66 -2 -71 -25 -80 -14 -5 -81 -41 -149 -80 -183
-105 -255 -125 -349 -99 l-38 10 3 67 3 67 72 -3 c87 -3 123 12 147 63 11 22
24 35 36 35 11 0 59 21 107 46 48 26 99 50 113 55 14 4 26 8 27 8 1 1 13 -3
27 -9z m-35 -460 c59 -11 185 -62 220 -89 23 -18 23 -19 6 -45 -25 -38 -69
-59 -108 -51 -18 4 -64 25 -103 46 -39 21 -78 39 -87 39 -8 0 -38 -21 -66 -46
-56 -50 -74 -52 -104 -12 -18 24 -19 32 -8 68 13 46 42 68 109 86 59 16 77 16
141 4z"/>
<path d="M10720 10048 c22 -36 26 -97 9 -131 -6 -12 -24 -35 -39 -52 -25 -27
-30 -43 -44 -155 -57 -455 -58 -802 -5 -1350 43 -444 49 -522 55 -705 7 -197
-5 -418 -31 -597 -8 -54 -15 -105 -15 -113 0 -13 77 -15 645 -15 l645 0 0
1575 0 1575 -269 0 -269 0 -11 -32 c-5 -18 -19 -88 -30 -156 -11 -67 -30 -145
-42 -172 -23 -53 -78 -110 -106 -110 -30 0 -167 42 -214 66 -71 36 -75 63 -24
160 42 79 46 142 15 204 l-20 40 -135 0 -135 0 20 -32z"/>
<path d="M215 9740 c-55 -5 -119 -12 -143 -15 l-42 -6 0 -230 0 -229 63 0 c34
-1 89 -7 122 -15 168 -41 791 -44 1250 -6 348 29 377 32 345 42 -14 4 -44 7
-68 8 -35 1 -50 8 -88 43 -103 95 -99 167 11 214 30 13 83 19 210 24 107 4
180 12 197 20 23 11 31 10 53 -4 37 -25 45 -54 45 -176 0 -89 -3 -111 -16
-118 -10 -6 53 -11 169 -15 102 -4 206 -10 231 -13 l46 -7 0 236 0 236 -57 8
c-32 4 -305 6 -608 4 -745 -6 -865 -6 -1270 1 -192 4 -395 3 -450 -2z"/>
<path d="M3192 9612 c-40 -43 -52 -99 -52 -244 -1 -80 -6 -137 -15 -163 -29
-81 20 -106 192 -98 103 5 110 7 155 39 86 63 131 159 150 324 9 78 9 102 -1
114 -26 32 -103 48 -253 53 l-147 6 -29 -31z"/>
<path d="M2240 9150 c-153 -12 -286 -33 -630 -100 -478 -93 -679 -117 -906
-107 -158 7 -189 17 -359 110 -137 75 -192 89 -280 73 l-35 -7 0 -1094 0
-1095 1290 0 1290 0 0 1104 c0 608 -3 1107 -7 1109 -17 10 -265 14 -363 7z"/>
<path d="M20 4455 l0 -65 5965 0 5965 0 0 65 0 65 -5965 0 -5965 0 0 -65z"/>
<path d="M1772 3563 c-15 -3 -31 -21 -47 -54 -14 -27 -29 -49 -33 -49 -4 0
-20 20 -37 45 -21 30 -37 45 -52 45 -13 0 -23 -2 -23 -5 0 -3 18 -29 39 -58
45 -59 61 -95 61 -138 0 -22 5 -29 20 -29 17 0 20 7 20 51 0 41 8 66 41 125
22 41 39 73 37 73 -2 -1 -13 -4 -26 -6z"/>
<path d="M1900 3541 c0 -18 6 -21 36 -21 l37 0 -7 -82 c-4 -46 -9 -91 -12
-101 -5 -17 21 -36 33 -23 4 4 12 48 18 99 l10 92 38 -2 c30 -2 37 1 37 16 0
19 -4 21 -137 37 -49 6 -53 5 -53 -15z"/>
<path d="M1340 3495 c0 -15 37 -189 45 -211 4 -13 156 15 156 29 1 25 -8 28
-55 17 -27 -6 -55 -9 -61 -6 -7 2 -20 45 -30 95 -15 76 -21 91 -36 91 -11 0
-19 -7 -19 -15z"/>
<path d="M2209 3406 c-18 -55 -32 -107 -33 -115 -1 -17 154 -65 167 -52 16 16
-1 28 -63 45 -55 16 -60 19 -54 39 3 12 10 26 14 30 6 7 63 -3 106 -20 9 -3
14 1 14 14 0 15 -13 24 -55 37 -50 15 -55 20 -49 39 11 36 18 38 79 17 46 -16
60 -17 67 -8 13 22 10 24 -77 50 l-85 25 -31 -101z"/>
<path d="M1041 3395 c-40 -34 -56 -84 -41 -130 43 -131 240 -103 240 35 0 38
-23 84 -52 104 -36 26 -111 21 -147 -9z m137 -41 c47 -53 12 -134 -57 -134
-48 0 -83 34 -84 83 -2 80 86 112 141 51z"/>
<path d="M2539 3337 c-69 -46 -80 -124 -26 -184 28 -30 40 -36 78 -37 34 -1
44 3 47 17 3 14 -4 17 -33 17 -79 0 -112 84 -56 141 38 38 74 38 113 -1 31
-31 58 -39 58 -17 0 37 -71 87 -123 87 -13 0 -39 -10 -58 -23z"/>
<path d="M775 3240 c-22 -11 -51 -29 -65 -39 l-24 -19 47 -69 c77 -112 94
-130 108 -116 12 12 9 24 -13 56 -11 16 -9 22 18 45 41 35 56 65 48 96 -13 55
-63 74 -119 46z m65 -40 c23 -23 18 -41 -19 -74 -25 -23 -41 -17 -63 22 l-18
30 33 21 c40 26 42 26 67 1z"/>
<path d="M2849 3191 c-8 -11 -40 -52 -73 -90 -50 -61 -56 -73 -45 -87 11 -14
16 -11 44 22 35 41 48 40 94 -10 l24 -25 -27 -35 c-29 -39 -32 -52 -13 -59 8
-3 40 26 78 71 81 96 83 100 69 117 -10 12 -17 8 -42 -21 -16 -18 -34 -34 -39
-34 -5 0 -26 15 -46 33 l-36 34 28 37 c25 33 27 39 13 52 -13 13 -16 13 -29
-5z"/>
<path d="M1655 3060 c-167 -19 -365 -85 -510 -169 -101 -58 -198 -137 -294
-237 -84 -88 -91 -97 -74 -109 10 -7 99 -62 198 -122 99 -61 320 -201 492
-311 222 -142 315 -197 321 -189 5 7 69 107 142 222 204 322 391 605 401 605
18 0 554 -363 598 -404 l44 -41 -42 80 c-139 271 -406 500 -709 609 -160 57
-397 85 -567 66z"/>
<path d="M3055 2879 c-49 -39 -92 -73 -94 -75 -2 -2 2 -10 9 -19 11 -13 21 -8
76 35 35 28 65 50 67 50 2 0 -9 -47 -24 -105 -37 -142 -30 -147 89 -55 62 48
89 75 86 85 -9 23 -20 19 -81 -30 -31 -24 -59 -43 -61 -41 -2 2 8 45 22 96 18
68 23 98 15 111 -5 11 -11 19 -12 19 -1 -1 -42 -33 -92 -71z"/>
<path d="M350 2859 c-41 -16 -90 -71 -101 -113 -15 -57 4 -117 51 -160 84 -76
211 -46 256 61 20 46 17 84 -9 133 -38 72 -126 107 -197 79z"/>
<path d="M3290 2609 c-134 -76 -139 -79 -134 -94 4 -8 10 -15 15 -15 4 0 51
24 104 53 59 32 94 57 93 66 -5 24 -21 22 -78 -10z"/>
<path d="M643 2362 c-119 -224 -167 -513 -129 -771 42 -280 166 -531 361 -727
109 -110 185 -164 197 -143 5 8 43 76 84 152 87 162 218 382 391 662 69 109
125 202 126 206 1 4 -160 119 -358 256 -198 137 -416 290 -485 339 -69 50
-130 93 -136 97 -6 3 -28 -26 -51 -71z"/>
<path d="M3309 2417 c-63 -42 -76 -109 -35 -170 15 -22 22 -44 19 -56 -4 -16
-1 -21 16 -21 11 0 21 5 21 10 0 6 17 10 39 10 51 0 101 35 120 84 13 33 13
44 0 79 -27 79 -113 109 -180 64z m122 -46 c17 -17 29 -40 29 -55 0 -32 -37
-73 -74 -82 -27 -6 -28 -6 -22 23 9 41 -19 54 -36 17 -11 -24 -13 -25 -25 -8
-28 38 -6 105 41 124 37 15 57 11 87 -19z"/>
<path d="M2320 2322 c-40 -59 -138 -201 -218 -315 -79 -114 -143 -210 -141
-212 18 -17 364 -233 397 -247 102 -46 253 -31 354 34 188 119 229 380 87 559
-23 30 -296 224 -395 282 -6 3 -42 -39 -84 -101z"/>
<path d="M11426 2330 c-63 -16 -155 -71 -192 -114 -54 -63 -77 -136 -72 -231
9 -170 85 -238 346 -311 185 -53 242 -89 242 -154 0 -29 -47 -77 -87 -91 -49
-16 -164 -6 -234 20 -31 12 -82 40 -114 62 -32 22 -61 37 -65 32 -33 -35 -130
-156 -130 -163 0 -5 32 -30 71 -56 220 -146 537 -155 696 -20 18 15 47 57 65
94 30 60 33 75 33 152 -1 72 -5 93 -27 136 -48 91 -130 141 -324 197 -197 57
-234 79 -234 141 0 126 197 139 382 26 l47 -29 57 80 c31 44 57 87 58 96 1 20
-115 89 -194 114 -74 24 -261 34 -324 19z"/>
<path d="M4307 2324 c-4 -4 -7 -254 -7 -556 l0 -548 125 0 125 0 -2 553 -3
552 -116 3 c-63 1 -118 -1 -122 -4z"/>
<path d="M5020 1775 l0 -555 120 0 120 0 0 164 0 163 148 6 c171 6 247 25 332
85 107 74 155 183 148 331 -5 107 -37 178 -107 244 -105 99 -183 116 -523 117
l-238 0 0 -555z m536 312 c101 -53 122 -187 42 -264 -47 -44 -86 -53 -219 -53
l-119 0 0 171 0 171 133 -4 c97 -3 140 -8 163 -21z"/>
<path d="M6690 1775 l0 -555 120 0 120 0 0 164 0 163 148 6 c173 6 249 25 333
86 104 75 144 159 144 306 0 89 -3 107 -29 163 -36 79 -114 152 -191 181 -88
33 -166 41 -412 41 l-233 0 0 -555z m535 313 c94 -50 119 -169 53 -253 -39
-50 -89 -65 -225 -65 l-123 0 0 171 0 171 133 -4 c95 -3 140 -9 162 -20z"/>
<path d="M8166 2322 c-8 -13 -466 -1092 -466 -1098 0 -2 55 -3 123 -2 l122 3
50 123 49 122 236 -2 235 -3 49 -122 50 -123 127 0 127 0 -125 293 c-68 160
-174 410 -236 555 l-111 262 -113 0 c-61 0 -114 -4 -117 -8z m183 -449 c35
-86 66 -165 69 -175 4 -17 -5 -18 -142 -18 l-146 0 13 33 c7 17 40 96 72 175
32 78 61 142 64 142 3 0 35 -71 70 -157z"/>
<path d="M9177 2323 c-4 -3 -7 -253 -7 -555 l0 -548 125 0 125 0 0 180 0 180
94 0 93 0 119 -180 119 -180 143 0 142 0 -97 143 c-54 78 -115 166 -135 196
l-38 54 52 29 c29 16 67 43 84 59 78 75 115 206 94 326 -29 168 -138 265 -328
293 -75 11 -575 14 -585 3z m593 -239 c19 -11 45 -36 58 -55 20 -28 23 -44 20
-92 -4 -49 -9 -62 -38 -92 -46 -47 -80 -55 -247 -55 l-143 0 0 161 0 161 158
-3 c136 -4 162 -7 192 -25z"/>
<path d="M10510 1775 l0 -555 120 0 120 0 0 555 0 555 -120 0 -120 0 0 -555z"/>
<path d="M61 2223 c-14 -55 -18 -90 -12 -96 12 -12 31 0 31 21 1 42 13 44 113
19 92 -24 96 -24 100 -6 6 24 10 22 -100 48 l-91 23 9 31 c12 44 12 47 -10 47
-15 0 -23 -16 -40 -87z"/>
<path d="M3451 2070 c-66 -10 -95 -25 -110 -57 -26 -57 -1 -125 52 -142 24 -8
54 -8 103 -1 38 5 72 10 77 10 4 0 7 9 7 20 0 11 -3 20 -7 20 -5 0 -41 -5 -82
-10 -95 -13 -124 1 -119 58 3 31 8 38 38 49 19 6 61 15 93 18 47 5 57 10 57
26 0 21 -15 22 -109 9z"/>
<path d="M10 1972 c0 -18 9 -21 83 -27 91 -8 117 -22 117 -65 0 -51 -29 -64
-125 -57 -78 6 -85 5 -85 -12 0 -24 27 -31 117 -31 60 0 76 4 98 23 31 26 42
89 23 127 -19 35 -51 47 -145 55 -79 7 -83 7 -83 -13z"/>
<path d="M3346 1708 c-3 -13 -7 -51 -9 -85 -3 -58 3 -73 28 -73 1 0 6 32 9 70
7 69 8 70 37 70 29 0 29 0 29 -59 0 -54 12 -83 27 -67 4 3 8 31 11 61 4 53 6
55 33 55 l29 0 0 -70 c0 -53 3 -70 14 -70 15 0 26 50 26 126 l0 51 -82 6
c-137 11 -147 10 -152 -15z"/>
<path d="M3045 1617 c-44 -92 -160 -204 -257 -251 -174 -84 -367 -86 -526 -8
-33 16 -139 84 -237 151 -170 117 -179 121 -195 104 -9 -10 -86 -115 -170
-233 -191 -268 -353 -485 -458 -615 l-81 -99 37 -21 c378 -211 839 -220 1225
-23 330 169 569 468 663 827 22 84 43 232 33 230 -2 0 -17 -28 -34 -62z"/>
<path d="M14 1578 c10 -99 15 -118 35 -118 13 0 16 8 13 39 l-4 38 64 7 c129
14 136 16 130 38 -4 17 -11 19 -41 15 -20 -3 -64 -9 -98 -13 -59 -6 -63 -5
-63 14 0 32 -11 52 -27 52 -13 0 -15 -11 -9 -72z"/>
<path d="M160 1351 c-81 -24 -94 -31 -92 -47 2 -10 5 -19 5 -20 1 0 53 13 115
30 84 23 112 35 110 46 -5 23 -34 21 -138 -9z"/>
<path d="M3231 1164 c-32 -23 -72 -112 -64 -144 9 -39 33 -60 69 -60 27 0 42
10 79 47 35 37 45 43 45 28 0 -10 -14 -34 -32 -52 -31 -32 -31 -34 -17 -64
l15 -31 32 27 c69 58 93 152 49 193 -38 36 -74 29 -122 -24 -48 -52 -72 -44
-26 8 27 31 28 35 15 61 -17 32 -14 31 -43 11z"/>
<path d="M128 1159 c-15 -8 -13 -17 20 -94 35 -79 52 -99 67 -75 3 5 -1 23 -9
39 l-16 29 90 39 c64 27 90 43 90 56 0 24 -16 22 -109 -19 -46 -19 -84 -34
-86 -32 -2 2 -9 17 -17 35 -10 26 -16 30 -30 22z"/>
<path d="M400 957 c-21 -11 -25 -19 -24 -57 0 -25 2 -61 5 -80 4 -32 2 -35
-21 -35 -20 0 -28 8 -40 43 -16 48 -40 56 -40 15 0 -39 35 -91 65 -99 60 -15
98 34 76 97 -22 65 -10 100 29 79 18 -10 27 -29 34 -76 2 -10 10 -20 19 -22
13 -3 17 4 17 30 0 42 -32 96 -66 108 -30 12 -24 12 -54 -3z"/>
<path d="M3041 859 c-22 -30 -22 -31 -4 -44 10 -7 55 -41 99 -74 75 -55 83
-59 96 -43 41 49 44 44 -62 120 -54 40 -100 72 -102 72 -3 0 -15 -14 -27 -31z"/>
<path d="M532 667 c-74 -74 -81 -85 -67 -97 14 -12 23 -6 71 41 l54 53 0 -29
c0 -17 -5 -61 -10 -99 -9 -59 -8 -72 5 -85 14 -14 23 -7 95 64 44 44 80 85 80
92 0 31 -27 21 -82 -33 l-60 -59 8 70 c12 96 11 158 -1 162 -6 2 -48 -34 -93
-80z"/>
<path d="M2894 674 c-17 -8 -52 -37 -79 -64 l-48 -48 86 -89 86 -88 27 27 28
27 -22 24 c-12 13 -22 27 -22 31 0 4 24 5 53 1 49 -6 54 -5 81 24 l29 30 -29
6 c-63 14 -64 15 -64 50 0 25 -8 40 -31 59 -35 30 -52 32 -95 10z m53 -80 c3
-9 -3 -25 -16 -37 -20 -20 -22 -20 -38 -4 -16 15 -16 18 2 37 22 24 43 26 52
4z"/>
<path d="M806 418 c-59 -83 -64 -94 -50 -105 15 -11 26 0 85 84 38 53 66 100
63 104 -13 22 -37 2 -98 -83z"/>
<path d="M2552 428 c-25 -16 -32 -26 -29 -42 3 -11 11 -70 18 -131 6 -60 13
-111 14 -113 8 -9 75 43 75 58 0 26 66 66 85 50 10 -9 23 -6 55 10 l41 21 -73
57 c-105 83 -144 112 -149 111 -2 0 -19 -10 -37 -21z m87 -135 c-19 -22 -29
-15 -29 19 0 30 0 31 20 13 15 -14 17 -21 9 -32z"/>
<path d="M1241 253 c-51 -176 -51 -174 -38 -178 7 -2 29 -9 51 -15 55 -18 129
-15 159 5 39 25 62 94 47 139 -14 43 -46 67 -120 91 -30 10 -60 20 -67 22 -7
3 -19 -21 -32 -64z m139 -81 c0 -37 -17 -52 -57 -52 -18 0 -33 1 -33 3 0 2 7
27 15 55 l16 52 29 -15 c22 -12 30 -23 30 -43z"/>
<path d="M2205 282 c-27 -9 -51 -17 -53 -18 -5 -3 59 -218 68 -227 9 -10 75 7
74 19 -1 5 -4 21 -8 36 -5 23 -2 27 23 33 72 15 103 94 60 149 -17 22 -28 26
-67 25 -26 0 -69 -8 -97 -17z m105 -72 c0 -26 -39 -48 -51 -29 -19 30 -10 49
21 49 23 0 30 -4 30 -20z"/>
<path d="M1615 218 c-2 -7 -5 -59 -7 -116 l-3 -102 108 0 c99 0 107 1 107 19
0 16 -10 20 -65 26 -47 5 -65 11 -65 22 0 11 11 13 60 7 l60 -7 0 32 c0 28 -3
31 -29 31 -43 0 -91 11 -91 21 0 5 32 9 71 9 l70 0 -3 33 -3 32 -103 3 c-76 2
-103 -1 -107 -10z"/>
</g>
</svg>
